#!OML:ASF X:\für Bonn\!DataBase\2005_08_10_Bjorn_Final\c3d\bjorn.ASF
:FULLY-SPECIFIED
:DEGREES
512
root -0.331339 1.6073 10.8162 -2438.29 -5.76207 194.529
lowerback 9.05694 -1.03972 -8.77431
upperback 4.10571 -2.43391 -3.68928
thorax -0.596856 -1.41803 1.30716
lowerneck -19.7948 -5.47932 -0.950616
upperneck 13.7398 -8.23791 4.65546
head 7.71844 -3.64386 0.658321
rclavicle 3.18055e-015 -1.19271e-014
rhumerus -420.819 46.114 272.216
rradius 113.987
rwrist -7.42144
rhand -15.8202 11.2353
rfingers 7.12502
rthumb 10.3736 -18.4889
lclavicle 3.18055e-015 -1.19271e-014
lhumerus -44.8505 -55.9059 81.9456
lradius 104.327
lwrist 13.7322
lhand -16.4164 -13.827
lfingers 7.12502
lthumb 9.79842 735.925
rfemur -210.141 -147.585 162.19
rtibia 104.515
rfoot 43.9601 13.5696
rtoes 10.9156
lfemur 161.475 190.232 157.631
ltibia 52.3722
lfoot 23.0443 9.23546
ltoes -3.05014
513
root -0.33274 1.60695 10.8071 -2438.25 -5.67041 194.54
lowerback 8.99998 -1.06741 -8.67237
upperback 4.09286 -2.45179 -3.66805
thorax -0.581159 -1.42424 1.27307
lowerneck -19.7637 -5.48666 -0.932776
upperneck 13.7572 -8.2597 4.67258
head 7.7198 -3.653 0.658687
rclavicle -1.59028e-015 5.31749e-014
rhumerus -421.231 46.2749 271.609
rradius 113.77
rwrist -7.7728
rhand -15.4792 11.1036
rfingers 7.12502
rthumb 10.7025 -18.6038
lclavicle -1.59028e-015 5.31749e-014
lhumerus -45.7003 -56.3949 82.9244
lradius 104.895
lwrist 14.9599
lhand -15.3615 -13.9075
lfingers 7.12502
lthumb 10.8161 735.794
rfemur -210.148 -147.418 162.175
rtibia 104.584
rfoot 43.9732 13.5085
rtoes 11.038
lfemur 162.256 190.559 157.661
ltibia 50.7211
lfoot 22.8911 9.11361
ltoes -3.25944
514
root -0.333982 1.60696 10.8001 -2438.19 -5.56537 194.54
lowerback 8.92042 -1.09147 -8.56084
upperback 4.08929 -2.46073 -3.63497
thorax -0.543978 -1.42701 1.24419
lowerneck -19.7665 -5.49376 -0.914208
upperneck 13.7735 -8.27266 4.65591
head 7.72449 -3.65966 0.648344
rclavicle -5.08889e-014 3.51352e-014
rhumerus -421.602 46.454 271.057
rradius 113.567
rwrist -8.13167
rhand -15.2041 10.9626
rfingers 7.12502
rthumb 10.9679 -18.7309
lclavicle -5.08889e-014 3.51352e-014
lhumerus -46.5628 -56.8902 83.9425
lradius 105.424
lwrist 16.1022
lhand -14.4067 -13.9948
lfingers 7.12502
lthumb 11.7369 735.656
rfemur -210.182 -147.251 162.207
rtibia 104.647
rfoot 43.9733 13.4611
rtoes 11.0651
lfemur 163.013 190.881 157.707
ltibia 49.0861
lfoot 22.7219 8.91223
ltoes -3.77643
515
root -0.336206 1.60685 10.7939 -2438.15 -5.47532 194.555
lowerback 8.84703 -1.12762 -8.44893
upperback 4.08432 -2.48692 -3.61824
thorax -0.511029 -1.43802 1.19976
lowerneck -19.7401 -5.49158 -0.894243
upperneck 13.7842 -8.28095 4.67134
head 7.72387 -3.6622 0.649572
rclavicle -5.40694e-014 1.1281e-014
rhumerus -422.009 46.6404 270.464
rradius 113.383
rwrist -8.51462
rhand -14.9164 10.8566
rfingers 7.12502
rthumb 11.2454 -18.822
lclavicle -5.40694e-014 1.1281e-014
lhumerus -47.4753 -57.3687 84.9708
lradius 105.93
lwrist 17.081
lhand -13.5133 -14.0711
lfingers 7.12502
lthumb 12.5984 735.529
rfemur -210.179 -147.075 162.202
rtibia 104.691
rfoot 43.9739 13.4627
rtoes 11.0377
lfemur 163.754 191.223 157.736
ltibia 47.4915
lfoot 22.617 8.66107
ltoes -4.36241
516
root -0.338763 1.60642 10.7894 -2438.09 -5.38412 194.566
lowerback 8.77511 -1.15752 -8.3408
upperback 4.08201 -2.5056 -3.59572
thorax -0.476357 -1.44563 1.16271
lowerneck -19.7381 -5.48931 -0.838678
upperneck 13.8008 -8.2874 4.63287
head 7.72507 -3.66607 0.627271
rclavicle 1.59028e-015 3.63279e-014
rhumerus -422.376 46.8163 269.891
rradius 113.202
rwrist -8.90931
rhand -14.6271 10.7116
rfingers 7.12502
rthumb 11.5244 -18.9516
lclavicle 1.59028e-015 3.63279e-014
lhumerus -48.3489 -57.8372 85.9917
lradius 106.372
lwrist 17.9905
lhand -12.637 -14.1982
lfingers 7.12502
lthumb 13.4431 735.348
rfemur -210.191 -146.912 162.214
rtibia 104.732
rfoot 43.9732 13.451
rtoes 10.9717
lfemur 164.475 191.573 157.77
ltibia 45.9282
lfoot 22.5229 8.31776
ltoes -5.25819
517
root -0.341711 1.6066 10.7846 -2438.05 -5.28221 194.572
lowerback 8.69917 -1.18069 -8.19693
upperback 4.09067 -2.51315 -3.58746
thorax -0.431409 -1.44838 1.08985
lowerneck -19.7145 -5.49286 -0.821458
upperneck 13.7918 -8.30564 4.66579
head 7.71962 -3.67257 0.63352
rclavicle -1.27222e-014 -6.95746e-016
rhumerus -422.779 46.9716 269.292
rradius 113.065
rwrist -9.35052
rhand -14.3948 10.5995
rfingers 7.12502
rthumb 11.7484 -19.051
lclavicle -1.27222e-014 -6.95746e-016
lhumerus -49.2393 -58.3207 87.0082
lradius 106.826
lwrist 18.8438
lhand -11.804 -14.3846
lfingers 7.12502
lthumb 14.2458 735.107
rfemur -210.192 -146.762 162.232
rtibia 104.77
rfoot 43.9927 13.4377
rtoes 10.9631
lfemur 165.199 191.918 157.813
ltibia 44.3946
lfoot 22.4807 7.93482
ltoes -6.17691
518
root -0.344615 1.60596 10.7778 -2438.02 -5.2052 194.586
lowerback 8.65078 -1.20957 -8.08244
upperback 4.07948 -2.53463 -3.58599
thorax -0.420214 -1.45633 1.02869
lowerneck -19.6989 -5.48211 -0.764988
upperneck 13.8322 -8.30902 4.65416
head 7.72773 -3.67257 0.620136
rclavicle -2.8625e-014 3.49364e-014
rhumerus -423.237 47.1624 268.652
rradius 112.944
rwrist -9.77085
rhand -14.1998 10.4871
rfingers 7.12502
rthumb 11.9365 -19.1526
lclavicle -2.8625e-014 3.49364e-014
lhumerus -50.267 -58.7808 88.134
lradius 107.26
lwrist 19.6421
lhand -11.1142 -14.6022
lfingers 7.12502
lthumb 14.9105 734.841
rfemur -210.189 -146.6 162.209
rtibia 104.814
rfoot 44.0105 13.3907
rtoes 10.9712
lfemur 165.915 192.255 157.828
ltibia 42.8706
lfoot 22.5313 7.45709
ltoes -7.27078
519
root -0.348083 1.60491 10.7705 -2437.97 -5.10409 194.598
lowerback 8.58047 -1.23855 -7.94651
upperback 4.08099 -2.55101 -3.56832
thorax -0.384387 -1.46265 0.970937
lowerneck -19.6674 -5.47452 -0.715479
upperneck 13.8371 -8.30682 4.62158
head 7.72035 -3.67283 0.602739
rclavicle 3.65764e-014 -2.16675e-014
rhumerus -423.633 47.3469 268.072
rradius 112.835
rwrist -10.2564
rhand -13.9968 10.3876
rfingers 7.12502
rthumb 12.1322 -19.2406
lclavicle 3.65764e-014 -2.16675e-014
lhumerus -51.234 -59.2539 89.2589
lradius 107.668
lwrist 20.4392
lhand -10.5004 -14.697
lfingers 7.12502
lthumb 15.5017 734.702
rfemur -210.194 -146.44 162.218
rtibia 104.86
rfoot 44.0434 13.3808
rtoes 11.0424
lfemur 166.619 192.608 157.869
ltibia 41.3542
lfoot 22.6289 6.94515
ltoes -8.27172
520
root -0.351922 1.60473 10.7627 -2437.92 -5.03052 194.603
lowerback 8.50546 -1.27132 -7.83304
upperback 4.07734 -2.57419 -3.55967
thorax -0.350202 -1.4723 0.916647
lowerneck -19.6461 -5.46184 -0.697222
upperneck 13.8423 -8.29854 4.63362
head 7.71819 -3.66747 0.605256
rclavicle -3.81667e-014 5.8393e-014
rhumerus -424.068 47.5558 267.449
rradius 112.731
rwrist -10.7281
rhand -13.8657 10.3338
rfingers 7.12502
rthumb 12.2586 -19.2869
lclavicle -3.81667e-014 5.8393e-014
lhumerus -52.2667 -59.6746 90.404
lradius 108.065
lwrist 21.2483
lhand -9.88406 -14.7058
lfingers 7.12502
lthumb 16.0953 734.646
rfemur -210.219 -146.29 162.195
rtibia 104.918
rfoot 44.0804 13.4042
rtoes 11.1055
lfemur 167.329 192.958 157.88
ltibia 39.8381
lfoot 22.7153 6.49517
ltoes -9.04597
521
root -0.356005 1.60404 10.755 -2437.88 -4.92511 194.617
lowerback 8.42283 -1.30409 -7.67494
upperback 4.08845 -2.59321 -3.55375
thorax -0.29918 -1.48047 0.833912
lowerneck -19.6564 -5.45321 -0.659724
upperneck 13.8695 -8.30117 4.63607
head 7.72774 -3.66635 0.599083
rclavicle -4.77083e-015 1.1778e-014
rhumerus -424.487 47.7324 266.833
rradius 112.652
rwrist -11.2061
rhand -13.7645 10.3015
rfingers 7.12502
rthumb 12.3562 -19.3133
lclavicle -4.77083e-015 1.1778e-014
lhumerus -53.2222 -60.1085 91.4913
lradius 108.439
lwrist 22.0588
lhand -9.24157 -14.5948
lfingers 7.12502
lthumb 16.7139 734.706
rfemur -210.225 -146.137 162.208
rtibia 104.967
rfoot 44.1234 13.3422
rtoes 11.3147
lfemur 168.031 193.317 157.917
ltibia 38.3289
lfoot 22.7991 5.98409
ltoes -9.9464
522
root -0.360696 1.60362 10.7465 -2437.83 -4.83889 194.6
lowerback 8.36083 -1.32296 -7.52131
upperback 4.07367 -2.59862 -3.56156
thorax -0.288033 -1.47985 0.739797
lowerneck -19.5855 -5.43844 -0.600395
upperneck 13.8697 -8.29889 4.63174
head 7.71323 -3.66498 0.590315
rclavicle 1.43125e-014 4.57205e-015
rhumerus -424.973 47.9131 266.17
rradius 112.607
rwrist -11.7455
rhand -13.6368 10.2845
rfingers 7.12502
rthumb 12.4793 -19.3229
lclavicle 1.43125e-014 4.57205e-015
lhumerus -54.3371 -60.5324 92.6975
lradius 108.802
lwrist 22.8595
lhand -8.66202 -14.5092
lfingers 7.12502
lthumb 17.2718 734.743
rfemur -210.261 -145.998 162.209
rtibia 105.025
rfoot 44.1456 13.4129
rtoes 11.1716
lfemur 168.74 193.602 157.936
ltibia 36.8158
lfoot 22.8411 5.46953
ltoes -10.4621
523
root -0.364395 1.60268 10.737 -2437.78 -4.78017 194.593
lowerback 8.28114 -1.3436 -7.43598
upperback 4.07645 -2.60789 -3.53656
thorax -0.24348 -1.48366 0.716345
lowerneck -19.5803 -5.43193 -0.627139
upperneck 13.8778 -8.28141 4.63009
head 7.71554 -3.65741 0.596301
rclavicle 2.22639e-014 -3.83157e-014
rhumerus -425.407 48.1533 265.606
rradius 112.582
rwrist -12.285
rhand -13.5125 10.2854
rfingers 7.12502
rthumb 12.5991 -19.3147
lclavicle 2.22639e-014 -3.83157e-014
lhumerus -55.3891 -60.8895 93.8912
lradius 109.164
lwrist 23.7007
lhand -8.07287 -14.3883
lfingers 7.12502
lthumb 17.8387 734.814
rfemur -210.293 -145.861 162.184
rtibia 105.108
rfoot 44.1484 13.4528
rtoes 11.2154
lfemur 169.357 193.781 157.944
ltibia 35.4493
lfoot 22.7932 4.88434
ltoes -10.9273
